# xmcd
#
# Track frame offsets:
# 150
# 18864
# 31326
# 48753
# 63088
# 80992
# 93492
# 109181
# 129091
# 143393
# 160260
# 177802
# 196191
# 213281
#
# Disc length: 3049 seconds
#
#
# Revision: 2
# Processed by: cddbd v1.5.1PL2 Copyright (c) Steve Scherf et al.
# Submitted via: FreeRIP 2.944 
#
DISCID=a90be70e
DTITLE=Little Charlie and the Night Cats - Straight Up!
DYEAR=1900
DGENRE=Blues
TTITLE0=I Could Deal With It
TTITLE1=I Can't Speak No Spanish (No Hablo Espanol)
TTITLE2=I'm Just Lucky That Way
TTITLE3=Turn My Back on You
TTITLE4=Me and My Big Mouth
TTITLE5=You Gonna Lie
TTITLE6=Hey Gold Digger
TTITLE7=Homicide
TTITLE8=Too Close Together
TTITLE9=Gerontology
TTITLE10=Playboy Blues
TTITLE11=Is That It?
TTITLE12=On the Loose
TTITLE13=My Way or the Highway
EXTD=
EXTT0=
EXTT1=
EXTT2=
EXTT3=
EXTT4=
EXTT5=
EXTT6=
EXTT7=
EXTT8=
EXTT9=
EXTT10=
EXTT11=
EXTT12=
EXTT13=
PLAYORDER=
